<svg width="20" height="20" viewBox="0 0 20 20" fill="none" xmlns="http://www.w3.org/2000/svg">
<path d="M19.9996 14.6694C19.9996 18.0704 18.0706 19.9904 14.6696 20.0004L5.32957 20.0004C1.92957 20.0004 -0.000428036 18.0704 -0.000427887 14.6694L-0.000427479 5.33043C-0.00042733 1.92943 1.92957 0.000426456 5.32957 0.000426605L14.6696 0.000427013C18.0706 0.000427162 19.9996 1.92943 19.9996 5.33043L19.9996 14.6694ZM15.8696 10.5004C16.0396 10.2194 16.0396 9.87943 15.8696 9.61043C15.7006 9.33943 15.3896 9.19043 15.0796 9.21943L4.88957 9.21943C4.45957 9.27043 4.13957 9.62943 4.13957 10.0494C4.13957 10.4804 4.45957 10.8394 4.88957 10.8794L15.0796 10.8794C15.3896 10.9194 15.7006 10.7704 15.8696 10.5004ZM12.5896 5.83043C12.7596 5.56043 12.7596 5.21943 12.5896 4.95043C12.4196 4.67943 12.1106 4.53043 11.7996 4.56043L4.88957 4.56043C4.45957 4.59943 4.13957 4.95943 4.13957 5.38943C4.13957 5.82043 4.45957 6.17943 4.88957 6.21943L11.7996 6.21943C12.1106 6.25043 12.4196 6.09943 12.5896 5.83043ZM8.95957 15.0894C9.12957 14.8204 9.12957 14.4804 8.95957 14.2004C8.78957 13.9294 8.49057 13.7804 8.16957 13.8204L4.88957 13.8204C4.45957 13.8604 4.13957 14.2194 4.13957 14.6504C4.13957 15.0704 4.45957 15.4294 4.88957 15.4804L8.16957 15.4804C8.49057 15.5094 8.78957 15.3604 8.95957 15.0894Z" fill="white"/>
</svg>
